<?xml version="1.0" encoding="utf-8"?>
<!-- Generator: Adobe Illustrator 16.0.0, SVG Export Plug-In . SVG Version: 6.00 Build 0)  -->
<!DOCTYPE svg PUBLIC "-//W3C//DTD SVG 1.1//EN" "http://www.w3.org/Graphics/SVG/1.1/DTD/svg11.dtd">
<svg version="1.1" id="å±‚_1" xmlns="http://www.w3.org/2000/svg" xmlns:xlink="http://www.w3.org/1999/xlink" x="0px" y="0px"
	 width="612px" height="792px" viewBox="0 0 612 792" enable-background="new 0 0 612 792" xml:space="preserve">
<g>
	<g>
		<g>
			
				<rect x="-1" y="108.5" fill-rule="evenodd" clip-rule="evenodd" fill="#FFFFFF" stroke="#004C54" stroke-width="9" stroke-linecap="square" stroke-miterlimit="10" width="300" height="82"/>
			
				<rect x="-1" y="190.5" fill-rule="evenodd" clip-rule="evenodd" fill="#FFFFFF" stroke="#004C54" stroke-width="9" stroke-linecap="square" stroke-miterlimit="10" width="300" height="82"/>
		</g>
		<g>
			
				<rect x="-1" y="272.5" fill-rule="evenodd" clip-rule="evenodd" fill="#FFFFFF" stroke="#004C54" stroke-width="9" stroke-linecap="square" stroke-miterlimit="10" width="300" height="82"/>
			
				<rect x="-1" y="354.5" fill-rule="evenodd" clip-rule="evenodd" fill="#FFFFFF" stroke="#004C54" stroke-width="9" stroke-linecap="square" stroke-miterlimit="10" width="300" height="82"/>
		</g>
	</g>
	<g>
		<g>
			
				<rect x="335" y="108.5" fill-rule="evenodd" clip-rule="evenodd" fill="#FFFFFF" stroke="#004C54" stroke-width="9" stroke-linecap="square" stroke-miterlimit="10" width="300" height="82"/>
			
				<rect x="335" y="190.5" fill-rule="evenodd" clip-rule="evenodd" fill="#FFFFFF" stroke="#004C54" stroke-width="9" stroke-linecap="square" stroke-miterlimit="10" width="300" height="82"/>
		</g>
		<g>
			
				<rect x="335" y="272.5" fill-rule="evenodd" clip-rule="evenodd" fill="#FFFFFF" stroke="#004C54" stroke-width="9" stroke-linecap="square" stroke-miterlimit="10" width="300" height="82"/>
			
				<rect x="335" y="354.5" fill-rule="evenodd" clip-rule="evenodd" fill="#FFFFFF" stroke="#004C54" stroke-width="9" stroke-linecap="square" stroke-miterlimit="10" width="300" height="82"/>
		</g>
	</g>
	<rect x="135" y="56.5" fill-rule="evenodd" clip-rule="evenodd" fill="none" width="33.07" height="48"/>
	<text transform="matrix(1 0 0 1 135 86.6316)" fill="#004C54" font-family="'Î¢ÈíÑÅºÚ-Bold'" font-size="36">A</text>
	<rect x="470" y="56.5" fill-rule="evenodd" clip-rule="evenodd" fill="none" width="30.62" height="48"/>
	<text transform="matrix(1 0 0 1 470 86.6316)" fill="#004C54" font-family="'Î¢ÈíÑÅºÚ-Bold'" font-size="36">B</text>
	<rect x="-36" y="125.5" fill-rule="evenodd" clip-rule="evenodd" fill="none" width="28.21" height="48"/>
	<text transform="matrix(1 0 0 1 -36 155.6316)" fill="#004C54" font-family="'Î¢ÈíÑÅºÚ-Bold'" font-size="36">1</text>
	<rect x="-40" y="207.5" fill-rule="evenodd" clip-rule="evenodd" fill="none" width="28.21" height="48"/>
	<text transform="matrix(1 0 0 1 -40 237.6318)" fill="#004C54" font-family="'Î¢ÈíÑÅºÚ-Bold'" font-size="36">2</text>
	<rect x="-40" y="292.5" fill-rule="evenodd" clip-rule="evenodd" fill="none" width="28.21" height="48"/>
	<text transform="matrix(1 0 0 1 -40 322.6318)" fill="#004C54" font-family="'Î¢ÈíÑÅºÚ-Bold'" font-size="36">3</text>
	<rect x="-42" y="380.5" fill-rule="evenodd" clip-rule="evenodd" fill="none" width="28.21" height="48"/>
	<text transform="matrix(1 0 0 1 -42 410.6318)" fill="#004C54" font-family="'Î¢ÈíÑÅºÚ-Bold'" font-size="36">4</text>
	<rect x="8" y="124.5" fill-rule="evenodd" clip-rule="evenodd" fill="#FF0000" width="22" height="60"/>
	<rect x="37" y="124.5" fill-rule="evenodd" clip-rule="evenodd" fill="#FF0000" width="22" height="60"/>
	
		<path fill-rule="evenodd" clip-rule="evenodd" fill="#FFFFFF" stroke="#FF0000" stroke-width="3" stroke-linecap="square" stroke-miterlimit="10" d="
		M67.88,124.5h20.24c0.49,0,0.88,0.39,0.88,0.88v58.24c0,0.49-0.39,0.88-0.88,0.88H67.88c-0.49,0-0.88-0.39-0.88-0.88v-58.24
		C67,124.89,67.39,124.5,67.88,124.5z"/>
	<rect x="492" y="205.5" fill-rule="evenodd" clip-rule="evenodd" fill="#808080" width="22" height="60"/>
	<rect x="97" y="124.5" fill-rule="evenodd" clip-rule="evenodd" fill="#FF0000" width="22" height="60"/>
	<rect x="127" y="124.5" fill-rule="evenodd" clip-rule="evenodd" fill="#FF0000" width="22" height="60"/>
	<g>
		<rect x="8" y="205.5" fill-rule="evenodd" clip-rule="evenodd" fill="#808080" width="22" height="60"/>
		<rect x="37" y="205.5" fill-rule="evenodd" clip-rule="evenodd" fill="#808080" width="22" height="60"/>
		<rect x="67" y="205.5" fill-rule="evenodd" clip-rule="evenodd" fill="#808080" width="22" height="60"/>
		<rect x="97" y="205.5" fill-rule="evenodd" clip-rule="evenodd" fill="#808080" width="22" height="60"/>
		<rect x="127" y="205.5" fill-rule="evenodd" clip-rule="evenodd" fill="#808080" width="22" height="60"/>
	</g>
	<g>
		<rect x="8" y="287.5" fill-rule="evenodd" clip-rule="evenodd" fill="#808080" width="22" height="60"/>
		<rect x="37" y="287.5" fill-rule="evenodd" clip-rule="evenodd" fill="#808080" width="22" height="60"/>
		<rect x="67" y="287.5" fill-rule="evenodd" clip-rule="evenodd" fill="#808080" width="22" height="60"/>
		<rect x="97" y="287.5" fill-rule="evenodd" clip-rule="evenodd" fill="#808080" width="22" height="60"/>
		<rect x="127" y="287.5" fill-rule="evenodd" clip-rule="evenodd" fill="#808080" width="22" height="60"/>
	</g>
	<g>
		<rect x="8" y="369.5" fill-rule="evenodd" clip-rule="evenodd" fill="#808080" width="22" height="60"/>
		<rect x="37" y="369.5" fill-rule="evenodd" clip-rule="evenodd" fill="#808080" width="22" height="60"/>
		<rect x="67" y="369.5" fill-rule="evenodd" clip-rule="evenodd" fill="#808080" width="22" height="60"/>
		<rect x="97" y="369.5" fill-rule="evenodd" clip-rule="evenodd" fill="#808080" width="22" height="60"/>
		<rect x="127" y="369.5" fill-rule="evenodd" clip-rule="evenodd" fill="#808080" width="22" height="60"/>
	</g>
	<g>
		<rect x="344" y="124.5" fill-rule="evenodd" clip-rule="evenodd" fill="#808080" width="22" height="60"/>
		<rect x="373" y="124.5" fill-rule="evenodd" clip-rule="evenodd" fill="#808080" width="22" height="60"/>
		<rect x="403" y="124.5" fill-rule="evenodd" clip-rule="evenodd" fill="#808080" width="22" height="60"/>
		<rect x="433" y="124.5" fill-rule="evenodd" clip-rule="evenodd" fill="#808080" width="22" height="60"/>
		<rect x="463" y="124.5" fill-rule="evenodd" clip-rule="evenodd" fill="#808080" width="22" height="60"/>
	</g>
	<rect x="344" y="205.5" fill-rule="evenodd" clip-rule="evenodd" fill="#808080" width="22" height="60"/>
	<rect x="373" y="205.5" fill-rule="evenodd" clip-rule="evenodd" fill="#808080" width="22" height="60"/>
	<rect x="403" y="205.5" fill-rule="evenodd" clip-rule="evenodd" fill="#808080" width="22" height="60"/>
	<rect x="433" y="205.5" fill-rule="evenodd" clip-rule="evenodd" fill="#808080" width="22" height="60"/>
	<rect x="463" y="205.5" fill-rule="evenodd" clip-rule="evenodd" fill="#FF0000" width="22" height="60"/>
	<g>
		<rect x="344" y="287.5" fill-rule="evenodd" clip-rule="evenodd" fill="#808080" width="22" height="60"/>
		<rect x="373" y="287.5" fill-rule="evenodd" clip-rule="evenodd" fill="#808080" width="22" height="60"/>
		<rect x="403" y="287.5" fill-rule="evenodd" clip-rule="evenodd" fill="#808080" width="22" height="60"/>
		<rect x="433" y="287.5" fill-rule="evenodd" clip-rule="evenodd" fill="#808080" width="22" height="60"/>
		<rect x="463" y="287.5" fill-rule="evenodd" clip-rule="evenodd" fill="#808080" width="22" height="60"/>
	</g>
	<g>
		<rect x="344" y="369.5" fill-rule="evenodd" clip-rule="evenodd" fill="#808080" width="22" height="60"/>
		<rect x="373" y="369.5" fill-rule="evenodd" clip-rule="evenodd" fill="#808080" width="22" height="60"/>
		<rect x="403" y="369.5" fill-rule="evenodd" clip-rule="evenodd" fill="#808080" width="22" height="60"/>
		<rect x="433" y="369.5" fill-rule="evenodd" clip-rule="evenodd" fill="#808080" width="22" height="60"/>
		<rect x="463" y="369.5" fill-rule="evenodd" clip-rule="evenodd" fill="#808080" width="22" height="60"/>
	</g>
	<g>
		<path fill-rule="evenodd" clip-rule="evenodd" fill="#004C54" d="M37,657c0-19.61,15.89-35.5,35.5-35.5
			c19.61,0,35.5,15.89,35.5,35.5s-15.89,35.5-35.5,35.5C52.89,692.5,37,676.61,37,657z"/>
		
			<line fill-rule="evenodd" clip-rule="evenodd" fill="none" stroke="#004C54" stroke-width="10" stroke-linecap="round" stroke-linejoin="round" stroke-miterlimit="10" x1="72.5" y1="694" x2="72.5" y2="750"/>
		
			<line fill-rule="evenodd" clip-rule="evenodd" fill="none" stroke="#004C54" stroke-width="10" stroke-linecap="round" stroke-linejoin="round" stroke-miterlimit="10" x1="72.5" y1="748" x2="108.5" y2="784"/>
		
			<line fill-rule="evenodd" clip-rule="evenodd" fill="none" stroke="#004C54" stroke-width="10" stroke-linecap="round" stroke-linejoin="round" stroke-miterlimit="10" x1="70.5" y1="750" x2="30.5" y2="790"/>
		
			<line fill-rule="evenodd" clip-rule="evenodd" fill="none" stroke="#004C54" stroke-width="10" stroke-linecap="round" stroke-linejoin="round" stroke-miterlimit="10" x1="78.5" y1="714" x2="102.5" y2="714"/>
		
			<line fill-rule="evenodd" clip-rule="evenodd" fill="none" stroke="#004C54" stroke-width="10" stroke-linecap="round" stroke-linejoin="round" stroke-miterlimit="10" x1="73.5" y1="714" x2="42.5" y2="714"/>
	</g>
	
		<ellipse fill-rule="evenodd" clip-rule="evenodd" fill="none" stroke="#004C54" stroke-width="5" stroke-linecap="round" stroke-linejoin="round" stroke-miterlimit="10" cx="325.5" cy="546.5" rx="110.5" ry="47"/>
	
		<path fill-rule="evenodd" clip-rule="evenodd" fill="none" stroke="#004C54" stroke-width="5" stroke-linecap="round" stroke-linejoin="round" stroke-miterlimit="10" d="
		M127,623.5c0-3.31,2.69-6,6-6s6,2.69,6,6s-2.69,6-6,6S127,626.81,127,623.5z"/>
	
		<circle fill-rule="evenodd" clip-rule="evenodd" fill="none" stroke="#004C54" stroke-width="5" stroke-linecap="round" stroke-linejoin="round" stroke-miterlimit="10" cx="180" cy="598.5" r="21"/>
	<rect x="256" y="529.5" fill-rule="evenodd" clip-rule="evenodd" fill="none" width="147.48" height="48"/>
	<text transform="matrix(1 0 0 1 256 559.6318)" fill="#004C54" font-family="'Î¢ÈíÑÅºÚ-Bold'" font-size="36">A1-- 3 ?</text>
</g>
</svg>
